<svg xmlns="http://www.w3.org/2000/svg" width="40.017" height="26.01" viewBox="0 0 40.017 26.01">
  <g id="返回" transform="translate(-23.983 -70.99)">
    <g id="箭头">
      <rect id="矩形_4_拷贝" data-name="矩形 4 拷贝" width="38" height="2" rx="1" transform="translate(26 83)" fill="#fff"/>
      <path id="矩形_4_拷贝_3" data-name="矩形 4 拷贝 3" d="M25.711,83.289,37.881,95.3a.989.989,0,0,1,0,1.412,1.022,1.022,0,0,1-1.432,0L24.28,84.7a.989.989,0,0,1,0-1.412A1.022,1.022,0,0,1,25.711,83.289Z" fill="#fff"/>
      <path id="矩形_4_拷贝_4" data-name="矩形 4 拷贝 4" d="M37.881,71.282a.989.989,0,0,1,0,1.412L25.711,84.7a1.021,1.021,0,0,1-1.432,0,.989.989,0,0,1,0-1.412L36.449,71.282A1.022,1.022,0,0,1,37.881,71.282Z" fill="#fff"/>
    </g>
    <path id="Color_Overlay" data-name="Color Overlay" d="M36.449,96.708,24.28,84.7a.988.988,0,0,1,0-1.412L36.449,71.283a1.021,1.021,0,0,1,1.432,0,.989.989,0,0,1,0,1.412L27.435,83H63a1,1,0,0,1,0,2H27.445L37.881,95.3a.989.989,0,0,1,0,1.412,1.023,1.023,0,0,1-1.432,0Z" fill="#fff"/>
  </g>
</svg>
