<svg xmlns="http://www.w3.org/2000/svg" width="231.002" height="35.999" viewBox="0 0 231.002 35.999">
  <path id="形状_8" data-name="形状 8" d="M430.491,72a6.534,6.534,0,0,1,6.517-5.969l11.4.019a6.456,6.456,0,0,1,6.418,5.9l2.608,30.005h-5.553l-1.249-14.306H438.368l-1.249,14.306L427.87,102Zm9.127,1.35-.766,8.767h11.292l-.771-8.832a1.853,1.853,0,0,0-1.844-1.693h-6A1.923,1.923,0,0,0,439.618,73.347ZM394.3,101.953V76.2h9.21V96.421h8.3a6.436,6.436,0,0,0,6.431-6.44V78.045A6.45,6.45,0,0,0,411.8,71.59h-3.669v0H394.3v-5.53h19.763a9.713,9.713,0,0,1,9.707,9.72V92.256a9.69,9.69,0,0,1-9.684,9.7Zm-23.729,0a9.892,9.892,0,0,1-9.886-9.9v-26H369.9V89.922a6.5,6.5,0,0,0,6.491,6.5h13.772v5.532Zm-33.816,0a9.691,9.691,0,0,1-9.684-9.7v-26.2h29.47V71.59h-20.26v9.578h20.26V86.7h-20.26v3.122a6.451,6.451,0,0,0,6.447,6.455h13.813v5.676Zm-33.643,0a9.661,9.661,0,0,1-9.655-9.668V66.057h9.21v23.9a6.456,6.456,0,0,0,6.451,6.46H317.4V66.057h5.525v35.9Zm-43.116,0V76.2h9.21V96.421h8.274a6.465,6.465,0,0,0,6.461-6.469V78.045A6.451,6.451,0,0,0,277.5,71.59H260V66.059h19.8a9.675,9.675,0,0,1,9.67,9.681V92.266a9.681,9.681,0,0,1-9.675,9.687Zm213.5-.038V86.765L461.53,66h10.634l6.245,10.831,6.21-10.769,6.383,0L479.029,86.821v15.094Z" transform="translate(-259.999 -66.001)" fill="#fff"/>
</svg>
